<svg width="42" height="47" viewBox="0 0 42 47" fill="none" xmlns="http://www.w3.org/2000/svg">
<path fill-rule="evenodd" clip-rule="evenodd" d="M15.1474 11.4482C15.3322 11.047 15.5487 10.7354 15.6917 10.571C15.6945 10.9586 15.6348 11.3063 15.5423 11.6084C15.8269 11.7457 16.1228 11.938 16.4054 12.2033C16.1876 12.1967 15.8118 12.144 15.3917 12.0071C15.1981 12.4341 14.9534 12.7289 14.7929 12.8661C14.8038 12.5068 14.8794 12.1625 14.9856 11.8518C14.6855 11.7188 14.3814 11.5405 14.1103 11.3045C14.32 11.2799 14.7026 11.3005 15.1474 11.4482Z" fill="url(#paint0_linear_643_2102)"/>
<path fill-rule="evenodd" clip-rule="evenodd" d="M13.6866 7.42915C13.8096 7.16212 13.9537 6.95469 14.0489 6.84531C14.0508 7.10327 14.011 7.33467 13.9494 7.53578C14.1389 7.62717 14.3359 7.75516 14.524 7.93178C14.3791 7.9274 14.1289 7.89228 13.8492 7.80118C13.7203 8.08539 13.5574 8.28163 13.4506 8.37299C13.4579 8.1338 13.5082 7.90456 13.5789 7.69778C13.3792 7.60927 13.1768 7.49057 12.9964 7.33351C13.1359 7.31715 13.3905 7.33081 13.6866 7.42915Z" fill="url(#paint1_linear_643_2102)"/>
<path fill-rule="evenodd" clip-rule="evenodd" d="M9.73311 3.43388C9.91792 3.0327 10.1344 2.72106 10.2774 2.55674C10.2802 2.94429 10.2205 3.29193 10.128 3.59407C10.4127 3.73137 10.7085 3.92365 10.9912 4.18898C10.7734 4.18239 10.3975 4.12963 9.97745 3.99279C9.78383 4.41976 9.53908 4.71457 9.37861 4.85182C9.38948 4.49249 9.4651 4.1481 9.57131 3.83746C9.27123 3.70447 8.96718 3.52614 8.69611 3.29017C8.90579 3.26559 9.28831 3.28612 9.73311 3.43388Z" fill="url(#paint2_linear_643_2102)"/>
<path fill-rule="evenodd" clip-rule="evenodd" d="M9.10673 12.429C9.37863 11.8387 9.69713 11.3802 9.9076 11.1384C9.91173 11.7087 9.82383 12.2202 9.68772 12.6648C10.1064 12.8668 10.5414 13.1496 10.957 13.5397C10.6367 13.53 10.084 13.4525 9.4662 13.2513C9.18136 13.8794 8.8213 14.3131 8.58524 14.515C8.60123 13.9864 8.71245 13.4798 8.86867 13.0228C8.42699 12.8272 7.97944 12.5647 7.58045 12.2174C7.88903 12.1812 8.45205 12.2114 9.10673 12.429Z" fill="url(#paint3_linear_643_2102)"/>
<circle cx="10.7421" cy="8.38912" r="0.238214" transform="rotate(21.3865 10.7421 8.38912)" fill="#2F235A"/>
<circle cx="16.6404" cy="5.3939" r="0.238214" transform="rotate(21.3865 16.6404 5.3939)" fill="#FE9076"/>
<circle cx="5.31811" cy="6.69517" r="0.238214" transform="rotate(21.3865 5.31811 6.69517)" fill="#FFA400"/>
<circle cx="10.4334" cy="16.2868" r="0.238214" transform="rotate(21.3865 10.4334 16.2868)" fill="#23BB86"/>
<path d="M16.4597 4.25532C16.2279 3.37018 15.3914 1.34582 13.8994 0.329533" stroke="#FE9076" stroke-width="0.207343" stroke-linecap="round"/>
<path d="M4.61517 5.73418C4.0385 5.0238 2.44052 3.52573 0.661988 3.21646" stroke="#FFA400" stroke-width="0.207343" stroke-linecap="round"/>
<path d="M9.41998 16.633C8.90893 16.8194 7.62243 17.4133 6.56482 18.2978" stroke="#23BB86" stroke-width="0.207343" stroke-linecap="round"/>
<path fill-rule="evenodd" clip-rule="evenodd" d="M26.9522 11.4483C26.7674 11.0471 26.5509 10.7354 26.4079 10.5711C26.4051 10.9587 26.4648 11.3063 26.5573 11.6085C26.2726 11.7458 25.9768 11.938 25.6942 12.2033C25.912 12.1967 26.2878 12.144 26.7079 12.0072C26.9015 12.4341 27.1462 12.7289 27.3067 12.8662C27.2958 12.5069 27.2202 12.1625 27.114 11.8518C27.4141 11.7189 27.7182 11.5405 27.9893 11.3045C27.7796 11.2799 27.397 11.3005 26.9522 11.4483Z" fill="url(#paint4_linear_643_2102)"/>
<path fill-rule="evenodd" clip-rule="evenodd" d="M28.413 7.42903C28.29 7.162 28.1459 6.95456 28.0507 6.84519C28.0488 7.10315 28.0885 7.33454 28.1501 7.53565C27.9606 7.62705 27.7637 7.75504 27.5755 7.93166C27.7205 7.92728 27.9707 7.89215 28.2503 7.80106C28.3792 8.08527 28.5421 8.28151 28.6489 8.37286C28.6417 8.13368 28.5914 7.90444 28.5207 7.69766C28.7204 7.60914 28.9228 7.49045 29.1032 7.33339C28.9636 7.31703 28.709 7.33069 28.413 7.42903Z" fill="url(#paint5_linear_643_2102)"/>
<path fill-rule="evenodd" clip-rule="evenodd" d="M32.3669 3.43382C32.1821 3.03264 31.9657 2.721 31.8226 2.55668C31.8198 2.94424 31.8795 3.29188 31.972 3.59403C31.6874 3.73133 31.3916 3.92359 31.1089 4.18891C31.3267 4.18232 31.7025 4.12956 32.1226 3.99273C32.3162 4.41971 32.561 4.71451 32.7214 4.85176C32.7106 4.49243 32.6349 4.14805 32.5287 3.83741C32.8288 3.70442 33.1329 3.52609 33.404 3.2901C33.1943 3.26552 32.8118 3.28605 32.3669 3.43382Z" fill="url(#paint6_linear_643_2102)"/>
<path fill-rule="evenodd" clip-rule="evenodd" d="M32.9933 12.429C32.7214 11.8387 32.4029 11.3802 32.1924 11.1384C32.1883 11.7087 32.2762 12.2202 32.4123 12.6648C31.9937 12.8668 31.5586 13.1496 31.143 13.5397C31.4633 13.53 32.016 13.4525 32.6338 13.2513C32.9186 13.8794 33.2787 14.3131 33.5147 14.515C33.4988 13.9864 33.3875 13.4798 33.2313 13.0229C33.673 12.8272 34.1206 12.5647 34.5196 12.2174C34.211 12.1812 33.648 12.2114 32.9933 12.429Z" fill="url(#paint7_linear_643_2102)"/>
<circle r="0.238214" transform="matrix(-0.931142 0.364658 0.364658 0.931142 31.3575 8.38909)" fill="#2F235A"/>
<circle r="0.238214" transform="matrix(-0.931142 0.364658 0.364658 0.931142 25.4592 5.39388)" fill="#FE9076"/>
<circle r="0.238214" transform="matrix(-0.931142 0.364658 0.364658 0.931142 36.7814 6.69515)" fill="#FFA400"/>
<circle r="0.238214" transform="matrix(-0.931142 0.364658 0.364658 0.931142 31.6662 16.2868)" fill="#23BB86"/>
<path d="M25.6403 4.2553C25.872 3.37016 26.7085 1.34581 28.2005 0.329517" stroke="#FE9076" stroke-width="0.207343" stroke-linecap="round"/>
<path d="M37.4844 5.73417C38.061 5.02379 39.659 3.52572 41.4376 3.21645" stroke="#FFA400" stroke-width="0.207343" stroke-linecap="round"/>
<path d="M32.6799 16.633C33.191 16.8194 34.4775 17.4133 35.5351 18.2978" stroke="#23BB86" stroke-width="0.207343" stroke-linecap="round"/>
<rect x="8.25641" y="29.3882" width="25.284" height="17.4779" fill="url(#paint8_linear_643_2102)"/>
<mask id="mask0_643_2102" style="mask-type:alpha" maskUnits="userSpaceOnUse" x="8" y="29" width="26" height="18">
<rect x="8.25641" y="29.3882" width="25.284" height="17.4779" fill="#C4C4C4"/>
</mask>
<g mask="url(#mask0_643_2102)">
<path d="M9.45247 28.9431L26.6691 28.9431L22.7778 35.7L5.5611 35.7L9.45247 28.9431Z" fill="black" fill-opacity="0.07"/>
<rect x="25.4502" y="29.3881" width="25.284" height="17.4779" fill="url(#paint9_linear_643_2102)"/>
</g>
<path d="M8.23394 29.3882L25.4506 29.3882L22.1249 34.9381L4.9082 34.9381L8.23394 29.3882Z" fill="url(#paint10_linear_643_2102)"/>
<mask id="mask1_643_2102" style="mask-type:alpha" maskUnits="userSpaceOnUse" x="25" y="29" width="9" height="18">
<rect x="25.4506" y="29.3882" width="8.08969" height="17.4779" fill="#C4C4C4"/>
</mask>
<g mask="url(#mask1_643_2102)">
<path d="M32.5553 29.3591L24.453 29.3591L28.2601 35.7488L36.3625 35.7488L32.5553 29.3591Z" fill="black" fill-opacity="0.07"/>
</g>
<path d="M33.5529 29.3882L25.4506 29.3882L28.7763 34.9381L36.8787 34.9381L33.5529 29.3882Z" fill="url(#paint11_linear_643_2102)"/>
<circle cx="17.2192" cy="24.5486" r="2.38933" fill="url(#paint12_linear_643_2102)"/>
<circle cx="24.6481" cy="21.3547" r="2.30882" fill="url(#paint13_linear_643_2102)"/>
<circle cx="19.6085" cy="15.4717" r="1.86184" fill="url(#paint14_linear_643_2102)"/>
<circle cx="25.9147" cy="15.1908" r="0.464312" fill="#FFA800" fill-opacity="0.23"/>
<circle cx="22.8036" cy="25.7443" r="0.464312" fill="#FFA800" fill-opacity="0.23"/>
<circle cx="15.1794" cy="18.5816" r="0.464312" fill="#FFA800" fill-opacity="0.23"/>
<path d="M33.5999 29.4709H8.23613L4.34088 5.45387H38.2773L33.5999 29.4709Z" fill="url(#paint15_linear_643_2102)"/>
<defs>
<linearGradient id="paint0_linear_643_2102" x1="15.6215" y1="10.8253" x2="14.7776" y2="12.9803" gradientUnits="userSpaceOnUse">
<stop stop-color="#FFE89E"/>
<stop offset="1" stop-color="#FFBF1A"/>
</linearGradient>
<linearGradient id="paint1_linear_643_2102" x1="14.0023" y1="7.01459" x2="13.4405" y2="8.44898" gradientUnits="userSpaceOnUse">
<stop stop-color="#FFE89E"/>
<stop offset="1" stop-color="#FFBF1A"/>
</linearGradient>
<linearGradient id="paint2_linear_643_2102" x1="10.2073" y1="2.81102" x2="9.36337" y2="4.96595" gradientUnits="userSpaceOnUse">
<stop stop-color="#FFE89E"/>
<stop offset="1" stop-color="#FFBF1A"/>
</linearGradient>
<linearGradient id="paint3_linear_643_2102" x1="9.80383" y1="11.5123" x2="8.56222" y2="14.6827" gradientUnits="userSpaceOnUse">
<stop stop-color="#FFE89E"/>
<stop offset="1" stop-color="#FFBF1A"/>
</linearGradient>
<linearGradient id="paint4_linear_643_2102" x1="26.4781" y1="10.8254" x2="27.322" y2="12.9803" gradientUnits="userSpaceOnUse">
<stop stop-color="#FFE89E"/>
<stop offset="1" stop-color="#FFBF1A"/>
</linearGradient>
<linearGradient id="paint5_linear_643_2102" x1="28.0973" y1="7.01446" x2="28.659" y2="8.44885" gradientUnits="userSpaceOnUse">
<stop stop-color="#FFE89E"/>
<stop offset="1" stop-color="#FFBF1A"/>
</linearGradient>
<linearGradient id="paint6_linear_643_2102" x1="31.8928" y1="2.81094" x2="32.7367" y2="4.96588" gradientUnits="userSpaceOnUse">
<stop stop-color="#FFE89E"/>
<stop offset="1" stop-color="#FFBF1A"/>
</linearGradient>
<linearGradient id="paint7_linear_643_2102" x1="32.2962" y1="11.5122" x2="33.5378" y2="14.6827" gradientUnits="userSpaceOnUse">
<stop stop-color="#FFE89E"/>
<stop offset="1" stop-color="#FFBF1A"/>
</linearGradient>
<linearGradient id="paint8_linear_643_2102" x1="16.7024" y1="26.1523" x2="6.6254" y2="53.9074" gradientUnits="userSpaceOnUse">
<stop stop-color="#FFD481"/>
<stop offset="1" stop-color="#FA620C"/>
</linearGradient>
<linearGradient id="paint9_linear_643_2102" x1="12.5699" y1="28.2796" x2="43.1525" y2="60.9614" gradientUnits="userSpaceOnUse">
<stop stop-color="#FFD481"/>
<stop offset="0.83311" stop-color="#FA620C"/>
</linearGradient>
<linearGradient id="paint10_linear_643_2102" x1="8.58825" y1="27.4046" x2="7.77003" y2="39.2298" gradientUnits="userSpaceOnUse">
<stop stop-color="#FFD481"/>
<stop offset="1" stop-color="#FA620C"/>
</linearGradient>
<linearGradient id="paint11_linear_643_2102" x1="34.8314" y1="27.4046" x2="36.2867" y2="39.1054" gradientUnits="userSpaceOnUse">
<stop stop-color="#FFD481"/>
<stop offset="1" stop-color="#FA620C"/>
</linearGradient>
<linearGradient id="paint12_linear_643_2102" x1="17.4001" y1="21.3707" x2="16.9456" y2="27.8201" gradientUnits="userSpaceOnUse">
<stop stop-color="#FF9F81"/>
<stop offset="1" stop-color="#F53838"/>
</linearGradient>
<linearGradient id="paint13_linear_643_2102" x1="24.8229" y1="18.2839" x2="24.3838" y2="24.516" gradientUnits="userSpaceOnUse">
<stop stop-color="#FF9F81"/>
<stop offset="1" stop-color="#F53838"/>
</linearGradient>
<linearGradient id="paint14_linear_643_2102" x1="19.7495" y1="12.9954" x2="19.3954" y2="18.021" gradientUnits="userSpaceOnUse">
<stop stop-color="#FF9F81"/>
<stop offset="1" stop-color="#F53838"/>
</linearGradient>
<linearGradient id="paint15_linear_643_2102" x1="21.0302" y1="5.45387" x2="21.0302" y2="56.4786" gradientUnits="userSpaceOnUse">
<stop stop-color="white" stop-opacity="0"/>
<stop offset="1" stop-color="#FE9277"/>
</linearGradient>
</defs>
</svg>
