<svg width="53" height="42" viewBox="0 0 53 42" fill="none" xmlns="http://www.w3.org/2000/svg">
<circle cx="9.42702" cy="17.1752" r="8.16063" stroke="#F53838" stroke-width="0.562802"/>
<path d="M11.8893 16.8234H7.71754L8.99439 15.2898C9.0541 15.2179 9.08282 15.1253 9.07425 15.0323C9.06567 14.9393 9.0205 14.8535 8.94867 14.7938C8.87683 14.7341 8.78422 14.7054 8.69121 14.714C8.5982 14.7225 8.5124 14.7677 8.4527 14.8395L6.69394 16.95C6.68211 16.9668 6.67153 16.9845 6.66228 17.0028C6.66228 17.0204 6.66228 17.0309 6.63766 17.0485C6.62172 17.0889 6.61337 17.1318 6.61304 17.1752C6.61337 17.2185 6.62172 17.2615 6.63766 17.3018C6.63766 17.3194 6.63766 17.3299 6.66228 17.3475C6.67153 17.3659 6.68211 17.3835 6.69394 17.4003L8.4527 19.5108C8.48577 19.5505 8.52718 19.5824 8.574 19.6043C8.62081 19.6262 8.67187 19.6375 8.72354 19.6374C8.80573 19.6376 8.88538 19.609 8.94867 19.5565C8.98428 19.527 9.01373 19.4907 9.03531 19.4498C9.05689 19.4089 9.07018 19.3641 9.07443 19.318C9.07868 19.272 9.07379 19.2255 9.06006 19.1813C9.04633 19.1371 9.02401 19.0961 8.99439 19.0605L7.71754 17.5269H11.8893C11.9826 17.5269 12.0721 17.4899 12.138 17.4239C12.204 17.3579 12.2411 17.2685 12.2411 17.1752C12.2411 17.0819 12.204 16.9924 12.138 16.9264C12.0721 16.8605 11.9826 16.8234 11.8893 16.8234Z" fill="#F53838"/>
<g filter="url(#filter0_d_740_3)">
<circle cx="31.9392" cy="17.1752" r="8.44203" fill="#F53838"/>
<circle cx="31.9392" cy="17.1752" r="8.16063" stroke="#F53838" stroke-width="0.562802"/>
</g>
<path d="M29.4771 16.8234H33.6489L32.3721 15.2898C32.3124 15.2179 32.2836 15.1253 32.2922 15.0323C32.3008 14.9393 32.346 14.8535 32.4178 14.7938C32.4896 14.7341 32.5822 14.7054 32.6752 14.714C32.7683 14.7225 32.8541 14.7677 32.9138 14.8395L34.6725 16.95C34.6843 16.9668 34.6949 16.9845 34.7042 17.0028C34.7042 17.0204 34.7042 17.0309 34.7288 17.0485C34.7447 17.0889 34.7531 17.1318 34.7534 17.1752C34.7531 17.2185 34.7447 17.2615 34.7288 17.3018C34.7288 17.3194 34.7288 17.3299 34.7042 17.3475C34.6949 17.3659 34.6843 17.3835 34.6725 17.4003L32.9138 19.5108C32.8807 19.5505 32.8393 19.5824 32.7925 19.6043C32.7456 19.6262 32.6946 19.6375 32.6429 19.6374C32.5607 19.6376 32.4811 19.609 32.4178 19.5565C32.3822 19.527 32.3527 19.4907 32.3311 19.4498C32.3096 19.4089 32.2963 19.3641 32.292 19.318C32.2878 19.272 32.2927 19.2255 32.3064 19.1813C32.3201 19.1371 32.3424 19.0961 32.3721 19.0605L33.6489 17.5269H29.4771C29.3839 17.5269 29.2944 17.4899 29.2284 17.4239C29.1625 17.3579 29.1254 17.2685 29.1254 17.1752C29.1254 17.0819 29.1625 16.9924 29.2284 16.9264C29.2944 16.8605 29.3839 16.8234 29.4771 16.8234Z" fill="white"/>
<defs>
<filter id="filter0_d_740_3" x="11.1155" y="0.291125" width="41.6473" height="41.6473" filterUnits="userSpaceOnUse" color-interpolation-filters="sRGB">
<feFlood flood-opacity="0" result="BackgroundImageFix"/>
<feColorMatrix in="SourceAlpha" type="matrix" values="0 0 0 0 0 0 0 0 0 0 0 0 0 0 0 0 0 0 127 0" result="hardAlpha"/>
<feOffset dy="3.93961"/>
<feGaussianBlur stdDeviation="6.19082"/>
<feColorMatrix type="matrix" values="0 0 0 0 0.0561111 0 0 0 0 0.0777333 0 0 0 0 0.133333 0 0 0 0.08 0"/>
<feBlend mode="normal" in2="BackgroundImageFix" result="effect1_dropShadow_740_3"/>
<feBlend mode="normal" in="SourceGraphic" in2="effect1_dropShadow_740_3" result="shape"/>
</filter>
</defs>
</svg>
