<svg width="8" height="7" viewBox="0 0 8 7" fill="none" xmlns="http://www.w3.org/2000/svg">
<path d="M3.27607 4.76834C3.23913 4.76842 3.20254 4.7612 3.1684 4.7471C3.13426 4.733 3.10323 4.71229 3.07712 4.68617L1.88341 3.49219C1.85652 3.46625 1.83506 3.43522 1.82029 3.40089C1.80551 3.36657 1.79773 3.32965 1.79738 3.29229C1.79702 3.25493 1.80412 3.21787 1.81824 3.18327C1.83237 3.14868 1.85324 3.11725 1.87964 3.09081C1.90605 3.06437 1.93745 3.04345 1.97202 3.02928C2.00659 3.0151 2.04364 3.00796 2.08101 3.00825C2.11837 3.00855 2.1553 3.01629 2.18965 3.03101C2.22399 3.04574 2.25505 3.06715 2.28103 3.09401L3.27578 4.08876L5.0669 2.29821C5.11967 2.2454 5.19125 2.21572 5.26589 2.2157C5.34054 2.21567 5.41214 2.2453 5.46494 2.29807C5.51775 2.35083 5.54742 2.42241 5.54745 2.49706C5.54748 2.5717 5.51785 2.6433 5.46508 2.69611L3.47502 4.68617C3.4489 4.71229 3.41788 4.733 3.38373 4.7471C3.34959 4.7612 3.313 4.76842 3.27607 4.76834Z" fill="#2FAB73"/>
</svg>
